PathFileType	4	(X/Y/Z)	67_2_18_p0_0-213_filt_butterworth.trc
DataRate	CameraRate	NumFrames	NumMarkers	Units	OrigDataRate	OrigDataStartFrame	OrigNumFrames
59.0	59.0	7	27	m	59.0	26	213
Frame#	Time	RHip			RKnee			RAnkle			RBigToe			RSmallToe			RHeel			LHip			LKnee			LAnkle			LBigToe			LSmallToe			LHeel			Neck			Head			Nose			RShoulder			RElbow			RWrist			RThumb			RIndex			RPinky			LShoulder			LElbow			LWrist			LThumb			LIndex			LPinky			
		X1	Y1	Z1	X2	Y2	Z2	X3	Y3	Z3	X4	Y4	Z4	X5	Y5	Z5	X6	Y6	Z6	X7	Y7	Z7	X8	Y8	Z8	X9	Y9	Z9	X10	Y10	Z10	X11	Y11	Z11	X12	Y12	Z12	X13	Y13	Z13	X14	Y14	Z14	X15	Y15	Z15	X16	Y16	Z16	X17	Y17	Z17	X18	Y18	Z18	X19	Y19	Z19	X20	Y20	Z20	X21	Y21	Z21	X22	Y22	Z22	X23	Y23	Z23	X24	Y24	Z24	X25	Y25	Z25	X26	Y26	Z26	X27	Y27	Z27	
26	0.4406779661016949	0.38119888574111704	0.770512211152935	0.7377044855469709	0.3815642167052833	0.29782151761650977	0.825740570031434	0.3409488127467806	-0.18440177784521522	0.8695914946877025	0.34830040779723603	-0.1369459264927025	0.5967818764241742	0.4027557965939159	-0.14730336959061396	0.6379167437133181	0.33032961751879214	-0.23766144685850288	0.9161348022273439	0.20127428239246395	0.7650527205854096	0.7493186412100461	0.18156948178972565	0.2969570298444431	0.8095377428677961	0.17400174362934714	-0.15243054680876456	0.8198248346178857	0.20168035806413395	-0.1447853594316835	0.6163889801065314	0.14867960728394491	-0.13819090531903358	0.6494304919474805	0.18700185362522226	-0.2241008223963037	0.8672386302277174	0.30115351107743005	1.3257124379712133	0.7609894479583947	0.32155085387561244	1.5657631269094698	0.7049585274465058	0.32800963131647265	1.453405768585894	0.6666667377390298	0.451075481905696	1.216984897588306	0.7275931426928939	0.4612927872310845	0.9464811178160945	0.7061027462426808	0.35742987670483034	0.7079324651520963	0.6442683306830042	0.305065357447662	0.6129261554471632	0.6166048986828946	0.29856794136500153	0.6056200468485535	0.6243258944298118	0.29226250474591164	0.6186376054126476	0.6119780952774255	0.15325489371205753	1.2287980501837195	0.7576121288368853	0.14074072524376974	0.9546308367619024	0.7035254622955672	0.2477195416410593	0.7392277430167448	0.6125146276766658	0.33586751261912906	0.6690887874579433	0.5822021805717518	0.33624536726263476	0.6255980952604019	0.593845962291715	0.28516267629365755	0.6187387730627952	0.597270200006578	
27	0.4576271186440678	0.3818774615404491	0.7701297400756353	0.7393203264511801	0.3814389972973564	0.2975414893718229	0.8257296068167417	0.3409450962801724	-0.184403505285066	0.8696277382655829	0.34812212776160373	-0.1365791317275707	0.5957997694869978	0.4027770493198781	-0.14819863934309085	0.6396806345961878	0.33031954073654257	-0.23766810254939352	0.9161570706431835	0.20156446735497807	0.7658997424365389	0.7488611963340501	0.18124225602364508	0.29791166911340555	0.8095242650924455	0.17398728384409656	-0.15240641268634286	0.81982313825556	0.2013242166544531	-0.14371493093522664	0.6146250575993685	0.14813075491768074	-0.13826202406319435	0.6489066854757177	0.18698029891970194	-0.2239655717628827	0.8670564027066391	0.30103097118612954	1.32568289826227	0.7603942243524647	0.32164596896601194	1.5657655975230684	0.7046608708784052	0.3284768580886852	1.4533632372893432	0.66837815907976	0.45040930590517647	1.2167898955295724	0.7278685500879034	0.46093209457795414	0.9468317170048156	0.7060181617765714	0.3569092173720827	0.7072024196639537	0.6456878399643691	0.3074277816576974	0.6142810396043106	0.6125273366773213	0.3002896849400515	0.6056702851708572	0.622730643129089	0.2923986862382847	0.6183304676289685	0.6119817825427929	0.15326821057797477	1.2287944565706634	0.7576288473762405	0.14058875991018688	0.9550348465686651	0.7033547203722473	0.24663529306215431	0.7380780046655026	0.6117037913099124	0.33785991658770664	0.6726060544893049	0.5766860299630505	0.3386536492085492	0.6283124278594234	0.588686398725769	0.28635068618864884	0.6171896654631306	0.5969986544642956	
28	0.4745762711864407	0.3828916917673093	0.7696784005448597	0.7413424841622296	0.3812386824306571	0.29741149002836365	0.8256739206641888	0.34094318102472826	-0.1843999483052272	0.8696576109358485	0.348139643021688	-0.1366266571033554	0.595653222190204	0.40215137684750013	-0.1498505074378745	0.6421585942283023	0.3303120549837853	-0.2376747214616034	0.9161755777587376	0.20210945246783027	0.7668829929657642	0.7478794450221189	0.1810175008905155	0.29895626571125355	0.8095546525450972	0.17396502509995745	-0.15230929125353412	0.8197960599758625	0.2012696316298488	-0.14355548717173025	0.6143554686197069	0.14734295011753792	-0.13937331457573698	0.6494707340951313	0.1869820674883899	-0.22377563584996768	0.8668913105814393	0.30104690616411306	1.325365062376055	0.7603593491096623	0.32198641157436003	1.566052780328678	0.7036723257294089	0.3290712479963782	1.4532944205492682	0.670573051518086	0.45044360618123214	1.216495438624911	0.7289350089116056	0.46085909887810095	0.9465395706318642	0.7059329704217187	0.35655711460749895	0.7069414442238203	0.6464472334657723	0.3075447064292335	0.6154248399705883	0.6093240989360352	0.29911717156031437	0.6061300015037215	0.6211229869931189	0.29167289940212454	0.618303274451454	0.6117180141192473	0.15326650580960005	1.2287793690936333	0.7576474262799712	0.14049182370134675	0.955432265639947	0.7031288824146245	0.24524629724929425	0.7376651524706735	0.6100012319624868	0.3391737692501766	0.6767947461749237	0.5698973212977471	0.340419744461314	0.6314614307940738	0.5829797302923216	0.2870612960787195	0.6159617979327213	0.596743329524103	
29	0.4915254237288136	0.3842644729493392	0.7693357891579844	0.7432012341478004	0.3809747774217917	0.2974892158461052	0.8255738564575026	0.34094347765564464	-0.18439097317913491	0.8696755021271774	0.3482422521055324	-0.13683506712517274	0.5959702815568094	0.4009516327197483	-0.15191749207590932	0.6449226156750761	0.33030714094485897	-0.2376819547989146	0.9161903573802693	0.20286274031652202	0.767990952949601	0.7463493483893011	0.18085820411217526	0.30014561559197417	0.809623965136717	0.17393651514423614	-0.1521482409533061	0.8197444093252624	0.20136914498642267	-0.14388868626177978	0.6148896640699432	0.14631913088520576	-0.14119919140655562	0.6510684086350393	0.18700492798235668	-0.22353406383069643	0.8667370412256546	0.30119930566480746	1.3247328279974395	0.7608871684182644	0.3225653097355621	1.5666196173661668	0.7020186910706471	0.32970920986756647	1.4532103396006424	0.6729327037152719	0.45129218968129037	1.216030650006647	0.7309189947468258	0.460955360559839	0.945555679553083	0.705841759743275	0.35670868193183386	0.7071770528769267	0.645483841338259	0.3053706163296511	0.6166405254959617	0.6066410277518082	0.29579748158392666	0.6069922190466832	0.6190368667345159	0.290254052087395	0.6183583934427505	0.6111561957181122	0.15321065299427464	1.2287567695368946	0.7576372325687242	0.14045569615329404	0.9557822048443767	0.7027752268903134	0.243525097022214	0.7380067902656762	0.6076205386076512	0.339206944328322	0.6813047595348494	0.5628400914863797	0.34081272375544436	0.6345181971535651	0.5776425255628997	0.2873111764564356	0.6152794353243871	0.5965259973174127	
30	0.5084745762711864	0.3859639479054499	0.7692783071423623	0.7443718753141714	0.38066097352387507	0.2976976878125837	0.8254318277147555	0.3409445493767705	-0.1843803044300474	0.8696836894978	0.3483081186556368	-0.13696407236864025	0.5962462768891509	0.399547469121969	-0.15403910959517633	0.6477222323687326	0.330306384451548	-0.2376804766650697	0.9161965770046768	0.20376861542081232	0.7691684520371757	0.7444029942743997	0.18074865036876428	0.30150938205710304	0.8097177647375535	0.17391038955718358	-0.15199753515400477	0.8196877317106128	0.20141576705079958	-0.14411338450194153	0.6152383317679557	0.14509718452672477	-0.14323485562174726	0.6533812624946385	0.18702975999482643	-0.22330207153079132	0.8665891540513614	0.3015035849083693	1.3238474853567976	0.7620738494102431	0.32330431408383625	1.5672206373233644	0.6999017067109307	0.33030739591342523	1.4531244131434702	0.6751318276382494	0.4527633921511759	1.2153521738844884	0.7336007989602087	0.4610162236552372	0.9439208866324907	0.7055954829101982	0.35758975885298694	0.7075985091073818	0.6424015612035401	0.3015495098841129	0.6183673874450497	0.6036253631713144	0.2916506532657237	0.6082227766456189	0.6159129830501214	0.28839740799928804	0.6183238753950779	0.6102582984105291	0.15308941646732804	1.2287316788081772	0.757585514227209	0.14046731115368835	0.9561644789843503	0.7023399599311427	0.2413577054405729	0.738858718819202	0.6050011306489418	0.3376151146565137	0.6858943581156547	0.5562975436683227	0.33931353432948475	0.6370473968115095	0.573099978569777	0.28699204721238436	0.6152048358905977	0.5963556967967704	
31	0.5254237288135594	0.3878608879312255	0.7694844367192404	0.7448860486562334	0.38031236475311203	0.2978311605810826	0.8252526246039029	0.34094393454307337	-0.1843731594892824	0.8696869635042799	0.3483016431699807	-0.13692619712798917	0.5962354796391075	0.3984835647306596	-0.15579919639888748	0.6502967677334315	0.33031417957623455	-0.23764640886381708	0.9161872067140726	0.20475670814419616	0.7702975569612719	0.742390170513733	0.1806956459354166	0.3029401623144625	0.8098105751384493	0.1738955742249799	-0.15194355802844062	0.8196502091248777	0.20130469639044485	-0.143907204712324	0.6148738500921666	0.14374734323835836	-0.14502235736745764	0.6556995362726479	0.18703401353571186	-0.22316310329673827	0.8664647980593289	0.30196037392569036	1.3228969978987684	0.7639317408922186	0.32410365626079585	1.567544932604317	0.6975876501181928	0.3307849494753274	1.4530523054456737	0.6768488396256667	0.45450210409286795	1.2145161077380764	0.7365694621791214	0.4609467477233653	0.9417532642533606	0.7051198627715777	0.35931282454110464	0.707832353252209	0.6375056025764284	0.2968535820163326	0.620811521557452	0.5997633231761909	0.28770130896190693	0.6097137601228256	0.6116661485005623	0.2864547861712866	0.618079888030223	0.60901362747384	0.15298762463427418	1.2287050409729023	0.7575429059888596	0.14054031442448106	0.9567190338058003	0.7021656350894646	0.23851479924137312	0.7398205913065499	0.602472171308452	0.3341774826820695	0.6904090228660873	0.5508183343101989	0.33567623403347663	0.6388014020681372	0.569635721575617	0.28597185274269593	0.6154736210148778	0.596186856082021	
32	0.5423728813559322	0.389801706290944	0.7696862386179526	0.7453046149095356	0.3799402148143063	0.29768565872128894	0.8250464226828391	0.34094012036011834	-0.18437252827934197	0.8696877718296682	0.3482657504302451	-0.13678257090419962	0.5959975248337477	0.39818364466526934	-0.15688432468842745	0.6522955194596181	0.3303350936403992	-0.2375546952789638	0.9161578517302406	0.2057445648876325	0.7712363904075532	0.7407285013452007	0.18072070264415124	0.304208639837523	0.8098784763118109	0.17389608179900248	-0.15202853869505584	0.8196452678449164	0.20112687747968366	-0.14349570412293108	0.6141743963222147	0.14250681488226943	-0.14621716067393808	0.6572419467565268	0.18700903174039105	-0.223166203285571	0.8663902404188057	0.3025346831748461	1.3221102975334984	0.7662850161172717	0.32485909391312684	1.5674121754673587	0.6953756537540848	0.3310772810252593	1.453007864638624	0.6778268331348215	0.45619093995634635	1.213651030865669	0.7393662491640416	0.4608984363205936	0.9392655664931797	0.7046942972760901	0.3618216475634292	0.7076810458395559	0.6315154158706834	0.29183182195067636	0.6237864794371026	0.5954105963058949	0.284368373962372	0.6112806204566658	0.6066959600780443	0.2849313982694112	0.6173544042114661	0.6076939281669269	0.15306902286354537	1.2286735839429743	0.7576126266471133	0.14073823430105797	0.957575857212485	0.7027722562293559	0.2347321572845909	0.7405102283411432	0.6003033062164224	0.32857061619937955	0.6945903526938509	0.5468944428300007	0.32974766154245694	0.6397116628348744	0.5674840664333086	0.28417431902507084	0.6156135729962688	0.5959036510555004	
